{"accessors" : [{"bufferView" : 0, "byteOffset" : 0, "componentType" : 5123, "count" : 39546, "type" : "SCALAR", "max" : [32713], "min" : [0]}, {"bufferView" : 1, "byteOffset" : 0, "componentType" : 5126, "count" : 32714, "type" : "VEC3", "max" : [0.9907974004745483, 0.626694917678833, 0.9907974004745483], "min" : [-0.9907974004745483, -0.22653569281101227, -0.9907974004745483], "name" : "POSITION"}, {"bufferView" : 1, "byteOffset" : 12, "componentType" : 5126, "count" : 32714, "type" : "VEC3", "max" : [0.9999948740005493, 1.0000042915344238, 0.9999948740005493], "min" : [-0.9999948740005493, -1.0000044107437134, -0.9999948740005493], "name" : "NORMAL"}, {"bufferView" : 1, "byteOffset" : 24, "componentType" : 5126, "count" : 32714, "type" : "VEC2", "max" : [0.958723783493042, 0.9857503175735474], "min" : [0.0074253082275390625, 0.007403373718261719], "name" : "TEXCOORD_0"}], "asset" : {"generator" : "Aspose.3D 22.1", "version" : "2.0"}, "buffers" : [{"uri" : "data:application/octet-stream;base64,", "byteLength" : 1344572}], "bufferViews" : [{"buffer" : 0, "byteOffset" : 0, "byteLength" : 79092, "target" : 34963}, {"buffer" : 0, "byteOffset" : 79096, "byteLength" : 1265472, "byteStride" : 32, "target" : 34962}], "images" : [{"uri" : "data:image/jpeg;base64,"}], "materials" : [{"name" : "ceramic", "pbrMetallicRoughness" : {"baseColorFactor" : [1, 1, 1, 1], "baseColorTexture" : {"index" : 0, "texCoord" : 0}, "metallicFactor" : 0, "roughnessFactor" : 0.949999988079071}, "emissiveFactor" : [0, 0, 0], "alphaMode" : "OPAQUE", "doubleSided" : true}], "meshes" : [{"primitives" : [{"attributes" : {"POSITION" : 1, "NORMAL" : 2, "TEXCOORD_0" : 3}, "indices" : 0, "material" : 0, "mode" : 4}]}], "nodes" : [{"matrix" : [32.951297760009766, 0, 0, 0, 0, -4.427298686733323E-06, 32.95130218730845, 0, 0, -32.95130218730845, -4.427298686733323E-06, 0, 0.1127706989645958, 0, 27.830976486206055, 1], "mesh" : 0, "name" : "cup_with saucer"}], "samplers" : [{"magFilter" : 9729, "minFilter" : 9987, "wrapS" : 10497, "wrapT" : 10497}], "scene" : 0, "scenes" : [{"nodes" : [0]}], "textures" : [{"sampler" : 0, "source" : 0}]}